<svg xmlns="http://www.w3.org/2000/svg" width="10858" height="8400" style="shape-rendering:geometricPrecision;text-rendering:geometricPrecision;image-rendering:optimizeQuality;fill-rule:evenodd;clip-rule:evenodd"><path fill="#cc1612" d="M1935.5 2471.5c6.99.6 13.82 2.6 20.5 6 .33 552.33.67 1104.67 1 1657 440.33-.33 880.67-.67 1321-1 .67 1.33.67 2.67 0 4a1554 1554 0 0 0-29.5 44 1783 1783 0 0 1-107 122c-18.33 16.67-36.67 33.33-55 50a7677 7677 0 0 1-86 60.5 6959 6959 0 0 1-99 52 4604 4604 0 0 1-101.5 34.5 3299 3299 0 0 1-71 16l-1-1c-21.45 2.56-43.45 5.22-66 8h-12c-4.71.76-9.38 1.76-14 3-4.46-.3-9.13-.3-14 0-5.63.94-10.97 1.94-16 3-2.33-.33-4.67-.67-7-1-1.71 1.26-3.37 1.6-5 1-3.67.67-7.33 1.33-11 2q-17.16.465-33 0c-3 .67-6 1.33-9 2-4.26-.64-8.6-.98-13-1-4.33.67-8.67 1.33-13 2-11.73-.2-23.9-.2-36.5 0-3.87.63-7.7 1.3-11.5 2-173.96.26-347.13-.07-519.5-1-.69.53-1.19 1.19-1.5 2q-6.195 50.37-13.5 100.5l1 1c-10.62 53.41-22.29 105.74-35 157-2.92 7.19-5.59 14.52-8 22-3.17 12.21-6.84 24.55-11 37l1 1c-17.4 42.3-35.23 84.47-53.5 126.5a4491 4491 0 0 0-42 79 2703 2703 0 0 0-51 72 2514 2514 0 0 0-57 62 4874 4874 0 0 1-58.5 53.5l-69 45a4350 4350 0 0 1-79 39c-32.99 9.73-65.65 19.4-98 29a3353 3353 0 0 0-63.5 10.5l-1-1c-9.95.92-19.62 1.92-29 3-2.81.11-5.48-.22-8-1-12.02.36-24.36 1.36-37 3-1.67-.33-3.33-.67-5-1-3 .67-6 1.33-9 2-10.3-.73-20.97-.73-32 0-3-.67-6-1.33-9-2-9.88-.13-19.55-.13-29 0-6-.67-12-1.33-18-2-2.55-.03-5.21.3-8 1-41.91-3.7-83.58-8.7-125-15-1.628.6-3.295.26-5-1-12.532-.37-24.865-2.71-37-7-13.975-2.49-27.975-5.82-42-10-.333.33-.667.67-1 1q-20.463-6.24-42.5-10.5a6660 6660 0 0 1-113-44c-25.365-14.35-50.699-28.68-76-43a1426 1426 0 0 0-51-38 3077 3077 0 0 1-69.5-62.5 3235 3235 0 0 1-59-76 3839 3839 0 0 0-41-73c-11.651-26.26-23.317-52.6-35-79-10.091-30.91-19.258-61.74-27.5-92.5a3974 3974 0 0 1-18-95c.674-1.75 1.007-3.42 1-5a377 377 0 0 1-3-16v-226a782 782 0 0 0 4.5-27.5c2.128-4.8 5.795-7.13 11-7q83.652.69 167 0c4.667.67 9.333 1.33 14 2 9.234-.82 18.567-1.16 28-1 7.333.67 14.667 1.33 22 2 3-.33 6-.67 9-1 11 .67 22 1.33 33 2 5.923.15 11.923-.19 18-1 8.667.67 17.333 1.33 26 2 11.272-.88 23.939-.55 38 1q14.216-.285 30.5 0c.23 12.35.897 25.01 2 38a35 35 0 0 1-1 4.5l2 10c-.502 5.4-.835 10.74-1 16l2 19c-.135 12.18-.135 24.51 0 37l2 12c-.512 4.8-.512 9.47 0 14l3 15c-.597 1.63-.263 3.29 1 5-.333.33-.667.67-1 1l2 6v10c1.358 1.83 1.692 3.66 1 5.5a659 659 0 0 1 4 21.5c-.714 1.34-.38 2.68 1 4q-.686.615-1 1.5a539 539 0 0 0 5 27.5 2275 2275 0 0 0 23.5 83.5 5133 5133 0 0 0 42.5 86 1130 1130 0 0 1 35 45 2885 2885 0 0 0 36 35.5 1531 1531 0 0 1 45 27c22.29 8.43 44.79 16.26 67.5 23.5l1-1c26.65 4.44 53.49 7.77 80.5 10 26.09-2.01 51.76-3.51 77-4.5 29-6.63 57.83-12.8 86.5-18.5a4242 4242 0 0 0 67.5-27.5c18.67-12 37.33-24 56-36a1505 1505 0 0 1 43.5-48.5c9.67-16 19.33-32 29-48 9.31-24.59 18.31-49.26 27-74 7.64-33.62 14.48-67.45 20.5-101.5 1.33-9.67 2.67-19.33 4-29-.33-1-.67-2-1-3q1.935-7.425 3-15c.06-4.27.06-8.61 0-13 1.62-8.63 2.96-17.29 4-26q1.125-14.445 0-27c.67-4.33 1.33-8.67 2-13 .21-13.8.21-27.13 0-40 .67-7.67 1.33-15.33 2-23-.78-3.87-1.11-7.87-1-12 .67-3 1.33-6 2-9-.05-6.03-.39-12.69-1-20 .67-3 1.33-6 2-9-.58-144.96-.91-286.63-1-425 .67-61.67 1.33-123.33 2-185-.51-36.18-.84-75.18-1-117 .67-41.67 1.33-83.33 2-125 .02-60.18-.32-119.18-1-177 .67-22.33 1.33-44.67 2-67-.79-37.22-1.12-76.22-1-117 .67-42.33 1.33-84.67 2-127-.84-40.73-1.18-79.07-1-115 .83-51.1 1.33-102.26 1.5-153.5 5.07-25.59 9.57-50.42 13.5-74.5 8.97-23.89 18.13-47.73 27.5-71.5 12.06-16.39 23.72-33.06 35-50a701 701 0 0 1 29.5-33.5c17.18-12.09 34.18-24.42 51-37l72-36c23.33-6.67 46.67-13.33 70-20 15.95-1.95 31.78-4.12 47.5-6.5l1 1c4.61-.57 9.27-1.57 14-3h10c1.62-.6 3.12-1.27 4.5-2" style="opacity:.997"/><path fill="#cc1612" d="M5428.5 2512.5c8.84-.47 17.5.03 26 1.5l-1 1c1.77 9.66 3.27 18.83 4.5 27.5q.27 20.37 1.5 40.5c-.33 8.33-.67 16.67-1 25 .67 10.67 1.33 21.33 2 32 .01 25.82-.33 49.49-1 71 .67 10.33 1.33 20.67 2 31-.98 24.66-1.31 48.33-1 71 .67 18.67 1.33 37.33 2 56-.19 56.82-.19 114.49 0 173 .67 5.33 1.33 10.67 2 16 .3 29.32-.04 58.99-1 89 .67 11.67 1.33 23.33 2 35-.54 23.56-.87 46.22-1 68 .67 27 1.33 54 2 81-.33 7.67-.67 15.33-1 23 .67 10.67 1.33 21.33 2 32-1.02 40.31-.69 81.31 1 123 .26 15.97-.08 32.64-1 50 .67 26.67 1.33 53.33 2 80-.78 259.5-.78 518.83 0 778-6.37 27.7-13.03 55.03-20 82l1 1c-11.07 23.87-22.9 47.37-35.5 70.5a459 459 0 0 0-32 40 180.5 180.5 0 0 1-16.5 15.5 1554 1554 0 0 1-41 32l-80 40a3635 3635 0 0 1-86.5 21.5h-15c-12.62 2.6-25.12 3.93-37.5 4-3.04.08-4.71-1.42-5-4.5V2791a2978 2978 0 0 1 17.5-63.5l28.5-57c15.97-17.64 31.97-35.31 48-53 16.7-12.69 33.03-25.85 49-39.5a4686 4686 0 0 0 83-39c33.91-9.72 67.57-18.56 101-26.5" style="opacity:.996"/><path fill="#cc1612" d="M3142.5 3672.5q146.325.36 292.5 0c3.55 1.52 7.05 3.19 10.5 5 .27 5.98.27 11.81 0 17.5q-.84 7.875-3 15-.105 5.91 0 12-3.495 22.155-6 43.5c.21.59.54 1.09 1 1.5-8.99 34.44-17.82 69.28-26.5 104.5a8837 8837 0 0 1-39 98 943 943 0 0 1-47.5 79.5c-201.47 1-402.81.67-604-1 37.33-28.67 74.67-57.33 112-86a3159 3159 0 0 0 198-173l101.5-101.5a89.5 89.5 0 0 1 10.5-15" style="opacity:.994"/><path fill="#cc1612" d="M4063.5 3682.5c54.88.24 109.72.24 164.5 0a225 225 0 0 0 18 4c22.31 2.88 45.31 6.55 69 11l1-1q53.25 15.63 106.5 31.5a3217 3217 0 0 1 98 44c24.17 14.92 48.5 29.58 73 44 20.05 16.05 40.38 31.72 61 47a7285 7285 0 0 1 74 68.5c18.31 23.48 36.81 46.81 55.5 70 15.33 24 30.67 48 46 72 15.67 33.33 31.33 66.67 47 100q15.585 52.8 31.5 106.5v7c2.32 11.01 4.65 22.01 7 33-.79 2.04-.45 4.04 1 6l-1 1c2.33 11 4.66 22 7 33-.23 3.04-.57 5.7-1 8 .67 2 1.33 4 2 6-.2 7.12-.2 14.45 0 22q1.17 10.545 3 21c-.04 26.06-.04 52.72 0 80-1.51 9.64-2.85 19.31-4 29 .33 1 .67 2 1 3-1.91 13.03-3.58 26.03-5 39 .12 1.27.45 2.6 1 4-1.39 5.74-2.39 11.58-3 17.5.21.59.54 1.09 1 1.5q-10.785 49.83-22.5 100.5c-9.8 29.73-19.8 59.4-30 89a6030 6030 0 0 0-39 78c-18.07 29.14-36.4 58.14-55 87-19.74 22.06-39.07 44.4-58 67a2877 2877 0 0 1-66.5 61.5 3292 3292 0 0 0-80 55c-35.79 18.4-71.46 37.06-107 56a8512 8512 0 0 0-98.5 32.5l-1-1c-17.09 3.69-34.42 7.69-52 12l-1-1c-4.7 1.23-9.37 2.56-14 4l-1-1a349 349 0 0 0-16 5h-9c-7.56 1.38-14.89 2.72-22 4l-1-1c-3.08.79-6.24 1.29-9.5 1.5-59.33.67-118.67.67-178 0-31.16-5.15-60.99-9.65-89.5-13.5-29.16-7.8-58.49-16.13-88-25l-1 1c-31.4-13.81-62.9-27.64-94.5-41.5a2490 2490 0 0 1-59-32c-23.66-16.83-47.32-33.66-71-50.5-21.67-20-43.33-40-65-60q-27.6-30.345-55.5-60c-21.33-32-42.67-64-64-96a4533 4533 0 0 0-40-81c-8.74-22.48-17.74-44.81-27-67a3244 3244 0 0 1-35.5-148.5c.46-.41.79-.91 1-1.5-1.38-8.86-2.71-17.69-4-26.5 1.03-53.32 1.03-106.66 0-160 5.35-27.5 10.02-55.5 14-84 10.64-36.1 21.14-71.93 31.5-107.5 19.27-39.55 38.27-79.21 57-119 18.08-25.83 35.91-51.83 53.5-78a3667 3667 0 0 0 84-94.5c21.67-18.33 43.33-36.67 65-55 27.33-18 54.67-36 82-54 23.3-12.32 46.64-24.65 70-37 30-11.67 60-23.33 90-35 32.4-8.39 64.9-16.23 97.5-23.5l1 1c1.67-.67 3.33-1.33 5-2l1 1c2-.67 4-1.33 6-2h9a5319 5319 0 0 0 33.5-6m36 351q47.325 1.65 94.5 0c24.51 6.42 49.34 11.92 74.5 16.5 27.43 11.86 55.09 24.19 83 37 17.33 11 34.67 22 52 33 18.2 17.2 36.7 34.04 55.5 50.5l50 65 41 82c6.83 27.33 13.67 54.66 20.5 82-.81 40.07-.81 80.24 0 120.5a644 644 0 0 0-5.5 31.5c-6.97 23.02-13.97 45.35-21 67a1486 1486 0 0 0-29 58c-15 21.67-30 43.33-45 65-12.5 13.17-25.33 26-38.5 38.5a2535 2535 0 0 1-68 51 5357 5357 0 0 0-76.5 38.5c-28.28 6.12-56.45 12.62-84.5 19.5-37.04.49-73.87.65-110.5.5-6.59-1.52-12.92-2.85-19-4l-1 1c-4.5-1.35-8.84-2.35-13-3-21.75-5.91-43.58-12.41-65.5-19.5a3028 3028 0 0 1-67-31 3927 3927 0 0 0-69-49c-18.47-20.8-37.3-41.3-56.5-61.5-11-17.33-22-34.67-33-52-12.8-27.89-25.13-55.56-37-83-5.26-24.93-10.26-49.6-15-74-.67-34.33-.67-68.67 0-103 6.28-28.04 12.61-56.71 19-86l36-78c16.58-22.82 32.91-45.82 49-69 18.05-16.41 35.89-32.91 53.5-49.5 23.73-16.06 47.73-31.73 72-47 25.58-10.63 51.25-20.96 77-31 25.13-5.29 49.63-10.45 73.5-15.5 1.31.79 2.48.45 3.5-1M6905.5 3682.5c60.22.24 120.38.24 180.5 0 33.03 7.21 66.2 14.05 99.5 20.5 31.74 10.47 63.41 21.14 95 32 36.46 19.06 72.79 38.4 109 58a4505 4505 0 0 1 73 53c20.36 18.04 41.03 35.87 62 53.5 19.96 21.46 39.79 43.13 59.5 65 19.75 28.51 39.75 56.84 60 85a2225 2225 0 0 0 32 55 3686 3686 0 0 1 43 106c3.49 13.27 6.65 26.6 9.5 40 31.62-.73 64.12-2.07 97.5-4 1.27.12 2.6.45 4 1 4.67-.67 9.33-1.33 14-2 3.67.33 7.33.67 11 1q2.1-1.095 4.5-1.5c8.5-31.47 17-63.31 25.5-95.5q21.315-49.44 42-99c13.39-19.06 26.39-38.39 39-58 18.33-21.67 36.67-43.33 55-65 21.17-16.5 42.33-33 63.5-49.5 29.79-14.89 59.79-29.23 90-43 29.15-7.33 57.98-14.5 86.5-21.5l1 1q16.065-2.595 31.5-4.5c509.12-.5 1017.79-.66 1526-.5 8.86.65 17.7 1.32 26.5 2 4.12-.71 8.12-1.04 12-1 5 .67 10 1.33 15 2 1.67-.33 3.33-.67 5-1 8.33.67 16.67 1.33 25 2 1.75-.67 3.42-1.01 5-1 9.67.67 19.33 1.33 29 2 4.07.2 8.41-.13 13-1 31.22 4.18 62.6 9.52 94 16 .3-.33.7-.67 1-1 28.3 9.11 56.4 18.61 84.5 28.5 24.2 13.25 48.5 26.25 73 39q29.55 23.07 60 45c22.8 22.68 45.5 45.51 68 68.5 15 22.14 30.1 44.14 45.5 66 10.5 19 21.5 37.66 33 56 14.7 37.69 29.2 75.85 43.5 114.5a2411 2411 0 0 0 19 96c.2 7.55.2 14.88 0 22 .7 2.33 1.3 4.67 2 7-.9 7.24-.6 15.24 1 24-.2 9.14-.2 18.81 0 29 .7 1.67 1.3 3.33 2 5-.3 2.33-.7 4.67-1 7 .7 3 1.3 6 2 9-1.4 1.32-1.7 2.66-1 4-1.3 5.63-2.3 11.29-3 17-.2 4.6-.2 8.94 0 13-.7 2-1.3 4-2 6 .3.33.7.67 1 1-.7 3.33-1.3 6.67-2 10v12c-1.5 9.31-2.8 18.65-4 28-1.1 12.78-3.8 25.44-8 38-5.7 24.45-11.7 48.78-18 73-15.1 35.1-29.9 69.94-44.5 104.5-15.7 24.67-31.3 49.33-47 74-18.7 22.67-37.3 45.33-56 68-10.2 10.51-20 21.34-29.5 32.5-19.6 16.3-39.3 32.64-59 49-26.2 16.92-52.5 33.59-79 50-29.2 14.23-58.3 27.4-87.5 39.5-.3-.33-.7-.67-1-1-22.4 8.22-44.42 15.55-66 22-1-.33-2-.67-3-1-14.84 2.94-30.01 5.77-45.5 8.5-515.37.5-1030.54.67-1545.5.5-1.67-.67-3.33-1.33-5-2-3.06.96-6.39.63-10-1-13.71-.61-28.04-2.27-43-5-2.79.79-5.96.46-9.5-1-.59.21-1.09.54-1.5 1-19.9-4.06-39.56-9.06-59-15l-1 1c-13.96-4.73-27.63-8.4-41-11-29.2-12.35-58.37-24.85-87.5-37.5l-62-41a1314 1314 0 0 0-46-41 3700 3700 0 0 1-51-51.5c-14.67-22.68-29.34-45.34-44-68a3623 3623 0 0 0-36.5-72c-6.95-21.62-14.11-42.78-21.5-63.5q1.995-9 0-18c-38.68-.03-77.34-.19-116-.5-1.27.07-2.44.4-3.5 1q-25.56 66.105-51 132c-21.2 46.09-45.2 90.42-72 133a4565 4565 0 0 0-49.5 64c-13.64 15.31-27.3 30.64-41 46a1520 1520 0 0 1-111 85.5c-27.33 15.33-54.67 30.67-82 46a9986 9986 0 0 0-105 40c-31.31 8.4-61.81 16.23-91.5 23.5q-46.935 9.06-93 18-28.665-.675-57 0c-3-.67-6-1.33-9-2l-1 1-23-3c-1 .33-2 .67-3 1a464 464 0 0 0-33-4l-1 1c-2.33-.67-4.67-1.33-7-2-1.67.33-3.33.67-5 1-2-.67-4-1.33-6-2-.41.46-.91.79-1.5 1-8.19-1.03-16.36-2.03-24.5-3-1 .33-2 .67-3 1-34.47-7.31-69.3-14.48-104.5-21.5q-44.565-14.85-90-30a7757 7757 0 0 1-89-42 2738 2738 0 0 1-54-34.5 3688 3688 0 0 0-65-50c-20.9-19.22-41.9-38.55-63-58a4055 4055 0 0 1-48.5-58 3414 3414 0 0 0-45-65c-16.67-30-33.33-60-50-90a7690 7690 0 0 1-47.5-124c-7.56-.68-15.06-1.35-22.5-2-6.23-.03-12.56.3-19 1-3.33-.67-6.67-1.33-10-2-1.27.12-2.6.45-4 1q-29.865-.795-60-3c-4.51.73-9.18 1.06-14 1-4.33-.67-8.67-1.33-13-2q-6.51 1.02-13.5 0c-1.3 12.59-2.97 25.09-5 37.5l1 1a7812 7812 0 0 0-31.5 93.5c-19.02 39.77-38.02 79.44-57 119-16.1 23.87-32.43 47.54-49 71-11 13.67-22 27.33-33 41-11.64 12.97-23.3 25.97-35 39a1314 1314 0 0 1-57.5 48l-77 51.5c-24.1 11.36-48.1 22.69-72 34a7965 7965 0 0 1-95 32q-42.42 7.8-84 15-52.5 1.005-105 0c-.81-94.28-1.14-188.45-1-282.5a7.4 7.4 0 0 1 2-3c52.79-29.56 105.13-59.9 157-91a3147 3147 0 0 1 52-42.5l43.5-43.5a3657 3657 0 0 0 46-67c10.02-22.21 20.19-44.38 30.5-66.5l-1-1c7.66-25.73 14.16-50.89 19.5-75.5.17-294.67.67-589.33 1.5-884 114.57-.53 229.07-.86 343.5-1 1.76.97 2.26 2.14 1.5 3.5.88 7.79 2.21 15.79 4 24-.86 3.38-.52 7.04 1 11l-1 1c.67 7.67 1.33 15.33 2 23 .04 26.61.04 52.94 0 79 .67 10.67 1.33 21.33 2 32-.16 11.6-.49 22.26-1 32 1.31 37.96 2.31 76.29 3 115-.82 8.75-1.15 17.41-1 26 .67 12 1.33 24 2 36-.55 58.21-.89 116.71-1 175.5h172a1346 1346 0 0 1 20-64.5l-1-1a1604 1604 0 0 1 39.5-92.5c15.81-25.61 31.14-51.61 46-78 19-24.33 38-48.67 57-73l86.5-86.5c28.61-19.61 56.94-39.61 85-60 29.16-15.08 58.16-30.41 87-46 31.67-11.67 63.33-23.33 95-35 36.05-7.82 72.39-15.82 109-24q24.33-5.01 48-7.5m27 351c30.22 1.1 60.38 1.1 90.5 0q6.03 1.335 12 3c.41-.46.91-.79 1.5-1 23.14 3.27 46.3 8.94 69.5 17l1-1c22.84 9.14 46.01 18.64 69.5 28.5a3243 3243 0 0 0 65 40 1707 1707 0 0 1 51.5 46.5q26.43 34.935 54 69c13.24 27.57 26.58 55.57 40 84 7.01 29.45 13.85 58.62 20.5 87.5 1.33 35.33 1.33 70.67 0 106-7 32.75-15.17 65.59-24.5 98.5-13.64 27.27-27.3 54.6-41 82-14 18.67-28 37.33-42 56-17.22 15.89-34.39 31.72-51.5 47.5-22 15.33-44 30.67-66 46a3853 3853 0 0 0-77 31c-23.36 5-46.7 10-70 15-37.04.49-73.87.65-110.5.5q-6.09-2.13-12-3l-1 1c-2-.67-4-1.33-6-2h-9c-31.86-10.34-63.69-20.84-95.5-31.5-26.03-15.68-52.03-31.35-78-47-19.8-17.8-39.3-35.97-58.5-54.5a1396 1396 0 0 0-40-49 2645 2645 0 0 0-33-61c-7.57-20.73-15.24-41.07-23-61-5.18-24.86-10.34-49.69-15.5-74.5.14-30.6.31-61.43.5-92.5a718 718 0 0 1 20-93 4144 4144 0 0 0 35-75c15.33-22 30.67-44 46-66l36.5-36.5 64-49a6732 6732 0 0 1 85-40c21.24-5.24 42.07-9.74 62.5-13.5 8.62-2.49 17.28-4.82 26-7 1.31.79 2.48.45 3.5-1m1429 132q225.825 1.545 451.5 0c13.55 3.61 27.72 7.44 42.5 11.5l68 34c15.82 13.65 31.48 27.48 47 41.5 20.3 21.47 40.14 43.47 59.5 66 14.94 21.94 30.28 43.61 46 65 15.94 29.54 31.6 59.21 47 89 20.33 47.33 40.67 94.67 61 142 1.05 2.65 2.55 4.99 4.5 7 1.2-11.07 1.2-22.9 0-35.5.67-2.33 1.33-4.67 2-7-.74-27.43-1.07-52.77-1-76 .67-7.67 1.33-15.33 2-23-.37-12.98-.7-25.65-1-38 .67-21.67 1.33-43.33 2-65-.3-35.38-.3-73.55 0-114.5.62-7.55 1.28-15.05 2-22.5-.55-14.67-.89-29.01-1-43 3.21-6.91 6.54-13.74 10-20.5 6.75-3.79 13.59-7.46 20.5-11 211.45.96 422.78.96 634 0 10.04 2.14 19.87 3.97 29.5 5.5 18.59 5.22 36.92 10.22 55 15 24.49 13.74 48.82 27.74 73 42 17.9 18.55 36.1 36.72 54.5 54.5 11.6 21.94 23.3 43.94 35 66 4.9 20.08 10.1 40.41 15.5 61-1.1 27.78-1.1 55.61 0 83.5q-5.1 22.8-10.5 46.5c-8.7 19.82-17.7 39.48-27 59-9.7 12.05-19.1 24.38-28 37-17.2 15.53-34.4 31.03-51.5 46.5-18.67 10-37.33 20-56 30-21.62 6.87-43.29 13.54-65 20-14.24.18-28.41.68-42.5 1.5-18.21-.9-38.54-.57-61 1-8.62-.96-17.96-1.3-28-1-11.33.67-22.67 1.33-34 2q-43.815-.24-87 0c-16 .67-32 1.33-48 2-332.4-.6-665.07-.6-998 0-12.67-.67-25.33-1.33-38-2-3.67.33-7.33.67-11 1-12.33-.67-24.67-1.33-37-2-5.92-.15-11.92.19-18 1-9-.67-18-1.33-27-2-8.23.09-15.9.43-23 1-8.33-.67-16.67-1.33-25-2-6.03.93-12.7 1.26-20 1-11.09-.82-22.26-1.32-33.5-1.5-20-6.67-40-13.33-60-20l-44-29a1784 1784 0 0 1-47.5-52.5c-8.12-17.03-16.62-33.86-25.5-50.5l1-1c-5.88-20.53-11.22-41.53-16-63a2537 2537 0 0 0 0-134 2107 2107 0 0 1 21.5-86.5c10.1-15.76 19.76-31.76 29-48 14.71-13.55 29.54-26.88 44.5-40a601 601 0 0 1 51.5-28l1 1c9.29-3.45 18.62-5.78 28-7 8.88-2.8 17.71-5.46 26.5-8" style="opacity:.997"/></svg>